<svg xmlns="http://www.w3.org/2000/svg" width="1280" height="400" viewBox="0 0 1280 400" role="img" aria-label="fable-pack: curated plugin marketplace for Claude Code">
  <defs>
    <radialGradient id="glow" cx="50%" cy="42%" r="75%">
      <stop offset="0%" stop-color="#1a2035"/>
      <stop offset="55%" stop-color="#10141f"/>
      <stop offset="100%" stop-color="#0b0e14"/>
    </radialGradient>
  </defs>
  <rect width="1280" height="400" fill="url(#glow)"/>
  <rect x="0.5" y="0.5" width="1279" height="399" fill="none" stroke="#2b3242" stroke-width="1"/>
  <g>
    <circle cx="1030" cy="51" r="2.1" fill="#7d8590" opacity="0.13"/>
    <circle cx="62" cy="70" r="1.8" fill="#7d8590" opacity="0.14"/>
    <circle cx="1054" cy="103" r="1.2" fill="#7d8590" opacity="0.10"/>
    <circle cx="1232" cy="166" r="2.0" fill="#7d8590" opacity="0.08"/>
    <circle cx="955" cy="332" r="1.4" fill="#7d8590" opacity="0.08"/>
    <circle cx="146" cy="69" r="1.3" fill="#7d8590" opacity="0.12"/>
    <circle cx="1104" cy="111" r="2.1" fill="#7d8590" opacity="0.08"/>
    <circle cx="1138" cy="352" r="2.1" fill="#7d8590" opacity="0.07"/>
    <circle cx="1093" cy="17" r="1.6" fill="#7d8590" opacity="0.10"/>
    <circle cx="556" cy="48" r="1.5" fill="#7d8590" opacity="0.13"/>
    <circle cx="851" cy="18" r="2.0" fill="#7d8590" opacity="0.09"/>
    <circle cx="1104" cy="37" r="1.5" fill="#7d8590" opacity="0.16"/>
    <circle cx="48" cy="56" r="1.9" fill="#7d8590" opacity="0.16"/>
    <circle cx="124" cy="86" r="1.8" fill="#7d8590" opacity="0.11"/>
    <circle cx="1169" cy="62" r="1.2" fill="#7d8590" opacity="0.08"/>
    <circle cx="550" cy="104" r="1.6" fill="#7d8590" opacity="0.07"/>
    <circle cx="293" cy="70" r="1.4" fill="#7d8590" opacity="0.09"/>
    <circle cx="1230" cy="257" r="2.0" fill="#7d8590" opacity="0.11"/>
    <circle cx="134" cy="247" r="1.9" fill="#7d8590" opacity="0.16"/>
    <circle cx="28" cy="30" r="1.9" fill="#7d8590" opacity="0.08"/>
    <circle cx="37" cy="43" r="2.0" fill="#7d8590" opacity="0.11"/>
    <circle cx="1162" cy="301" r="1.6" fill="#7d8590" opacity="0.09"/>
    <circle cx="448" cy="78" r="2.1" fill="#7d8590" opacity="0.10"/>
    <circle cx="697" cy="330" r="1.8" fill="#7d8590" opacity="0.11"/>
    <circle cx="257" cy="71" r="1.8" fill="#7d8590" opacity="0.13"/>
    <circle cx="1054" cy="113" r="1.5" fill="#7d8590" opacity="0.06"/>
    <circle cx="1133" cy="174" r="1.7" fill="#7d8590" opacity="0.12"/>
    <circle cx="713" cy="96" r="1.0" fill="#7d8590" opacity="0.16"/>
    <circle cx="1083" cy="377" r="2.0" fill="#7d8590" opacity="0.07"/>
    <circle cx="222" cy="166" r="1.8" fill="#7d8590" opacity="0.13"/>
    <circle cx="219" cy="333" r="1.1" fill="#7d8590" opacity="0.16"/>
    <circle cx="1220" cy="263" r="1.7" fill="#7d8590" opacity="0.08"/>
    <circle cx="760" cy="36" r="2.0" fill="#7d8590" opacity="0.12"/>
    <circle cx="1037" cy="307" r="1.0" fill="#7d8590" opacity="0.08"/>
    <circle cx="206" cy="290" r="2.1" fill="#7d8590" opacity="0.11"/>
    <circle cx="240" cy="151" r="1.4" fill="#7d8590" opacity="0.15"/>
    <circle cx="288" cy="92" r="1.4" fill="#7d8590" opacity="0.11"/>
    <circle cx="1068" cy="185" r="1.5" fill="#7d8590" opacity="0.14"/>
    <circle cx="118" cy="170" r="1.7" fill="#7d8590" opacity="0.07"/>
    <circle cx="364" cy="334" r="1.8" fill="#7d8590" opacity="0.09"/>
    <circle cx="1204" cy="198" r="1.7" fill="#7d8590" opacity="0.13"/>
    <circle cx="1125" cy="127" r="1.2" fill="#7d8590" opacity="0.10"/>
    <circle cx="1023" cy="342" r="1.7" fill="#7d8590" opacity="0.11"/>
    <circle cx="1197" cy="136" r="1.8" fill="#7d8590" opacity="0.07"/>
    <circle cx="977" cy="370" r="1.7" fill="#7d8590" opacity="0.06"/>
    <circle cx="1200" cy="344" r="1.8" fill="#7d8590" opacity="0.11"/>
    <circle cx="454" cy="43" r="1.2" fill="#7d8590" opacity="0.12"/>
    <circle cx="428" cy="119" r="1.5" fill="#7d8590" opacity="0.07"/>
    <circle cx="593" cy="347" r="1.2" fill="#7d8590" opacity="0.13"/>
    <circle cx="830" cy="98" r="1.4" fill="#7d8590" opacity="0.16"/>
    <circle cx="128" cy="127" r="2.2" fill="#7d8590" opacity="0.10"/>
    <circle cx="239" cy="39" r="1.4" fill="#7d8590" opacity="0.07"/>
    <circle cx="553" cy="334" r="1.6" fill="#7d8590" opacity="0.06"/>
    <circle cx="654" cy="105" r="1.2" fill="#7d8590" opacity="0.16"/>
    <circle cx="711" cy="374" r="1.2" fill="#7d8590" opacity="0.13"/>
    <circle cx="82" cy="61" r="1.2" fill="#7d8590" opacity="0.11"/>
    <circle cx="946" cy="41" r="1.4" fill="#7d8590" opacity="0.16"/>
    <circle cx="1237" cy="286" r="1.5" fill="#7d8590" opacity="0.10"/>
    <circle cx="230" cy="157" r="2.0" fill="#7d8590" opacity="0.08"/>
    <circle cx="874" cy="347" r="1.4" fill="#7d8590" opacity="0.08"/>
    <circle cx="1080" cy="17" r="1.9" fill="#7d8590" opacity="0.13"/>
    <circle cx="283" cy="110" r="1.4" fill="#7d8590" opacity="0.11"/>
    <circle cx="624" cy="360" r="1.7" fill="#7d8590" opacity="0.12"/>
    <circle cx="998" cy="77" r="1.9" fill="#7d8590" opacity="0.07"/>
    <circle cx="1016" cy="44" r="1.3" fill="#7d8590" opacity="0.06"/>
    <circle cx="226" cy="127" r="1.1" fill="#7d8590" opacity="0.15"/>
    <circle cx="1135" cy="88" r="1.2" fill="#7d8590" opacity="0.12"/>
    <circle cx="127" cy="333" r="1.6" fill="#7d8590" opacity="0.10"/>
    <circle cx="816" cy="82" r="2.1" fill="#7d8590" opacity="0.07"/>
    <circle cx="53" cy="379" r="1.7" fill="#7d8590" opacity="0.14"/>
    <circle cx="685" cy="372" r="1.6" fill="#7d8590" opacity="0.13"/>
    <circle cx="557" cy="116" r="2.1" fill="#7d8590" opacity="0.16"/>
    <circle cx="33" cy="381" r="2.2" fill="#7d8590" opacity="0.11"/>
    <circle cx="1147" cy="354" r="2.0" fill="#7d8590" opacity="0.15"/>
    <circle cx="684" cy="59" r="2.1" fill="#7d8590" opacity="0.10"/>
    <circle cx="279" cy="350" r="1.0" fill="#7d8590" opacity="0.11"/>
    <circle cx="82" cy="279" r="1.0" fill="#7d8590" opacity="0.14"/>
    <circle cx="1063" cy="181" r="1.4" fill="#7d8590" opacity="0.14"/>
    <circle cx="240" cy="112" r="1.3" fill="#7d8590" opacity="0.08"/>
    <circle cx="747" cy="99" r="1.6" fill="#7d8590" opacity="0.12"/>
    <circle cx="983" cy="339" r="2.0" fill="#7d8590" opacity="0.06"/>
    <circle cx="928" cy="333" r="1.2" fill="#7d8590" opacity="0.11"/>
    <circle cx="404" cy="84" r="1.1" fill="#7d8590" opacity="0.12"/>
    <circle cx="908" cy="84" r="1.4" fill="#7d8590" opacity="0.07"/>
    <circle cx="841" cy="93" r="1.9" fill="#7d8590" opacity="0.13"/>
    <circle cx="1108" cy="119" r="1.9" fill="#7d8590" opacity="0.13"/>
    <circle cx="234" cy="322" r="1.4" fill="#7d8590" opacity="0.15"/>
    <circle cx="658" cy="44" r="1.7" fill="#7d8590" opacity="0.16"/>
    <circle cx="805" cy="356" r="1.5" fill="#7d8590" opacity="0.13"/>
    <circle cx="1135" cy="90" r="2.1" fill="#7d8590" opacity="0.13"/>
    <circle cx="175" cy="166" r="1.4" fill="#7d8590" opacity="0.11"/>
    <circle cx="1109" cy="306" r="1.7" fill="#7d8590" opacity="0.10"/>
    <circle cx="98" cy="376" r="1.6" fill="#7d8590" opacity="0.13"/>
    <circle cx="130" cy="74" r="1.8" fill="#7d8590" opacity="0.15"/>
    <circle cx="557" cy="89" r="1.9" fill="#7d8590" opacity="0.14"/>
    <circle cx="127" cy="259" r="1.5" fill="#7d8590" opacity="0.08"/>
    <circle cx="1169" cy="235" r="1.8" fill="#7d8590" opacity="0.14"/>
    <circle cx="663" cy="117" r="1.2" fill="#7d8590" opacity="0.06"/>
    <circle cx="904" cy="115" r="1.2" fill="#7d8590" opacity="0.08"/>
    <circle cx="1136" cy="65" r="1.9" fill="#7d8590" opacity="0.10"/>
    <circle cx="1170" cy="299" r="1.5" fill="#7d8590" opacity="0.12"/>
    <circle cx="225" cy="323" r="1.1" fill="#7d8590" opacity="0.11"/>
    <circle cx="1129" cy="131" r="1.2" fill="#7d8590" opacity="0.15"/>
    <circle cx="1252" cy="310" r="1.2" fill="#7d8590" opacity="0.16"/>
    <circle cx="190" cy="294" r="1.1" fill="#7d8590" opacity="0.08"/>
    <circle cx="1163" cy="94" r="1.3" fill="#7d8590" opacity="0.12"/>
    <circle cx="813" cy="348" r="1.6" fill="#7d8590" opacity="0.13"/>
    <circle cx="722" cy="57" r="1.7" fill="#7d8590" opacity="0.06"/>
    <circle cx="514" cy="346" r="1.8" fill="#7d8590" opacity="0.11"/>
    <circle cx="915" cy="367" r="1.8" fill="#7d8590" opacity="0.06"/>
    <circle cx="224" cy="140" r="1.9" fill="#7d8590" opacity="0.15"/>
    <circle cx="1166" cy="23" r="2.0" fill="#7d8590" opacity="0.16"/>
    <circle cx="217" cy="197" r="1.0" fill="#7d8590" opacity="0.08"/>
    <circle cx="468" cy="383" r="2.1" fill="#7d8590" opacity="0.09"/>
    <circle cx="1166" cy="283" r="2.1" fill="#7d8590" opacity="0.12"/>
    <circle cx="691" cy="67" r="1.2" fill="#7d8590" opacity="0.07"/>
    <circle cx="168" cy="271" r="1.1" fill="#7d8590" opacity="0.08"/>
    <circle cx="639" cy="107" r="1.3" fill="#7d8590" opacity="0.12"/>
    <circle cx="1071" cy="153" r="1.8" fill="#7d8590" opacity="0.07"/>
    <circle cx="135" cy="216" r="2.1" fill="#7d8590" opacity="0.14"/>
    <circle cx="938" cy="336" r="1.5" fill="#7d8590" opacity="0.13"/>
    <circle cx="904" cy="316" r="1.8" fill="#7d8590" opacity="0.16"/>
    <circle cx="391" cy="373" r="1.5" fill="#7d8590" opacity="0.08"/>
    <circle cx="778" cy="364" r="2.2" fill="#7d8590" opacity="0.13"/>
    <circle cx="1212" cy="91" r="1.6" fill="#7d8590" opacity="0.08"/>
    <circle cx="1172" cy="238" r="1.5" fill="#7d8590" opacity="0.13"/>
    <circle cx="217" cy="25" r="1.5" fill="#7d8590" opacity="0.11"/>
    <circle cx="1110" cy="306" r="1.1" fill="#7d8590" opacity="0.07"/>
    <circle cx="68" cy="75" r="2.0" fill="#7d8590" opacity="0.09"/>
    <circle cx="211" cy="310" r="1.3" fill="#7d8590" opacity="0.15"/>
    <circle cx="1115" cy="171" r="1.7" fill="#7d8590" opacity="0.08"/>
    <circle cx="118" cy="220" r="1.1" fill="#7d8590" opacity="0.11"/>
    <circle cx="479" cy="108" r="1.8" fill="#7d8590" opacity="0.08"/>
    <circle cx="456" cy="310" r="1.8" fill="#7d8590" opacity="0.13"/>
    <circle cx="230" cy="62" r="1.0" fill="#7d8590" opacity="0.06"/>
    <circle cx="1219" cy="139" r="1.5" fill="#7d8590" opacity="0.13"/>
    <circle cx="1081" cy="131" r="1.3" fill="#7d8590" opacity="0.13"/>
    <circle cx="981" cy="358" r="2.0" fill="#7d8590" opacity="0.11"/>
    <circle cx="1248" cy="257" r="2.1" fill="#7d8590" opacity="0.16"/>
    <circle cx="306" cy="338" r="1.8" fill="#7d8590" opacity="0.15"/>
    <circle cx="870" cy="97" r="1.9" fill="#7d8590" opacity="0.12"/>
    <circle cx="84" cy="351" r="1.9" fill="#7d8590" opacity="0.10"/>
    <circle cx="1101" cy="315" r="1.7" fill="#7d8590" opacity="0.12"/>
    <circle cx="481" cy="38" r="1.3" fill="#7d8590" opacity="0.14"/>
    <circle cx="963" cy="37" r="1.5" fill="#7d8590" opacity="0.10"/>
    <circle cx="538" cy="20" r="1.6" fill="#7d8590" opacity="0.06"/>
    <circle cx="311" cy="80" r="1.3" fill="#7d8590" opacity="0.10"/>
    <circle cx="1138" cy="128" r="1.2" fill="#7d8590" opacity="0.11"/>
    <circle cx="78" cy="100" r="1.8" fill="#7d8590" opacity="0.07"/>
    <circle cx="34" cy="382" r="1.2" fill="#7d8590" opacity="0.11"/>
    <circle cx="675" cy="369" r="1.7" fill="#7d8590" opacity="0.11"/>
    <circle cx="1197" cy="359" r="1.8" fill="#7d8590" opacity="0.07"/>
    <circle cx="1218" cy="381" r="1.9" fill="#7d8590" opacity="0.09"/>
    <circle cx="68" cy="51" r="1.7" fill="#7d8590" opacity="0.13"/>
    <circle cx="735" cy="51" r="1.7" fill="#7d8590" opacity="0.09"/>
    <circle cx="770" cy="321" r="1.1" fill="#7d8590" opacity="0.09"/>
    <circle cx="1099" cy="103" r="2.0" fill="#7d8590" opacity="0.08"/>
    <circle cx="79" cy="335" r="1.9" fill="#7d8590" opacity="0.09"/>
    <circle cx="542" cy="81" r="1.5" fill="#7d8590" opacity="0.06"/>
    <circle cx="937" cy="325" r="1.3" fill="#7d8590" opacity="0.14"/>
    <circle cx="84" cy="373" r="1.6" fill="#7d8590" opacity="0.13"/>
    <circle cx="351" cy="359" r="1.3" fill="#7d8590" opacity="0.16"/>
    <circle cx="1144" cy="70" r="1.5" fill="#7d8590" opacity="0.08"/>
    <circle cx="724" cy="329" r="1.4" fill="#7d8590" opacity="0.14"/>
    <circle cx="1147" cy="251" r="2.0" fill="#7d8590" opacity="0.12"/>
    <circle cx="1016" cy="376" r="1.8" fill="#7d8590" opacity="0.07"/>
    <circle cx="203" cy="71" r="2.0" fill="#7d8590" opacity="0.13"/>
    <circle cx="723" cy="26" r="1.2" fill="#7d8590" opacity="0.10"/>
    <circle cx="444" cy="88" r="1.3" fill="#7d8590" opacity="0.15"/>
    <circle cx="1063" cy="62" r="1.5" fill="#7d8590" opacity="0.11"/>
    <circle cx="1255" cy="321" r="1.1" fill="#7d8590" opacity="0.11"/>
    <circle cx="1260" cy="106" r="1.6" fill="#7d8590" opacity="0.08"/>
    <circle cx="36" cy="62" r="2.1" fill="#7d8590" opacity="0.12"/>
    <circle cx="112" cy="73" r="1.7" fill="#7d8590" opacity="0.13"/>
    <circle cx="589" cy="318" r="2.1" fill="#7d8590" opacity="0.11"/>
    <circle cx="211" cy="316" r="1.5" fill="#7d8590" opacity="0.09"/>
    <circle cx="1104" cy="133" r="1.6" fill="#7d8590" opacity="0.12"/>
    <circle cx="821" cy="37" r="2.0" fill="#7d8590" opacity="0.07"/>
    <circle cx="989" cy="306" r="1.3" fill="#7d8590" opacity="0.11"/>
    <circle cx="213" cy="360" r="1.5" fill="#7d8590" opacity="0.09"/>
    <circle cx="1131" cy="46" r="1.2" fill="#7d8590" opacity="0.12"/>
    <circle cx="1072" cy="171" r="1.3" fill="#7d8590" opacity="0.08"/>
    <circle cx="1070" cy="175" r="1.9" fill="#7d8590" opacity="0.12"/>
    <circle cx="298" cy="351" r="2.1" fill="#7d8590" opacity="0.08"/>
    <circle cx="584" cy="313" r="1.1" fill="#7d8590" opacity="0.16"/>
    <circle cx="1226" cy="378" r="1.4" fill="#7d8590" opacity="0.15"/>
    <circle cx="177" cy="356" r="1.5" fill="#7d8590" opacity="0.07"/>
    <circle cx="354" cy="41" r="1.3" fill="#7d8590" opacity="0.11"/>
    <circle cx="778" cy="99" r="2.2" fill="#7d8590" opacity="0.07"/>
    <circle cx="913" cy="105" r="2.0" fill="#7d8590" opacity="0.12"/>
    <circle cx="59" cy="344" r="2.0" fill="#7d8590" opacity="0.06"/>
    <circle cx="849" cy="44" r="1.3" fill="#7d8590" opacity="0.10"/>
    <circle cx="206" cy="31" r="1.2" fill="#7d8590" opacity="0.07"/>
    <circle cx="424" cy="19" r="1.5" fill="#7d8590" opacity="0.12"/>
    <circle cx="444" cy="358" r="1.8" fill="#7d8590" opacity="0.11"/>
    <circle cx="671" cy="113" r="1.2" fill="#7d8590" opacity="0.11"/>
    <circle cx="1049" cy="184" r="1.6" fill="#7d8590" opacity="0.14"/>
    <circle cx="110" cy="224" r="1.3" fill="#7d8590" opacity="0.14"/>
    <circle cx="1172" cy="233" r="1.2" fill="#7d8590" opacity="0.08"/>
    <circle cx="165" cy="336" r="1.9" fill="#7d8590" opacity="0.08"/>
    <circle cx="206" cy="18" r="2.0" fill="#7d8590" opacity="0.15"/>
    <circle cx="29" cy="105" r="2.2" fill="#7d8590" opacity="0.12"/>
    <circle cx="790" cy="305" r="1.2" fill="#7d8590" opacity="0.15"/>
    <circle cx="90" cy="313" r="2.1" fill="#7d8590" opacity="0.13"/>
    <circle cx="225" cy="159" r="2.1" fill="#7d8590" opacity="0.08"/>
    <circle cx="1200" cy="130" r="2.0" fill="#7d8590" opacity="0.09"/>
    <circle cx="1099" cy="87" r="1.8" fill="#7d8590" opacity="0.13"/>
    <circle cx="1221" cy="191" r="1.1" fill="#7d8590" opacity="0.14"/>
    <circle cx="1092" cy="374" r="1.9" fill="#7d8590" opacity="0.11"/>
    <circle cx="844" cy="369" r="1.9" fill="#7d8590" opacity="0.08"/>
    <circle cx="941" cy="353" r="2.0" fill="#7d8590" opacity="0.13"/>
    <circle cx="241" cy="311" r="1.9" fill="#7d8590" opacity="0.14"/>
    <circle cx="192" cy="297" r="2.1" fill="#7d8590" opacity="0.10"/>
    <circle cx="224" cy="355" r="1.1" fill="#7d8590" opacity="0.12"/>
    <circle cx="793" cy="94" r="1.9" fill="#7d8590" opacity="0.07"/>
    <circle cx="226" cy="90" r="2.0" fill="#7d8590" opacity="0.14"/>
    <circle cx="132" cy="178" r="2.1" fill="#7d8590" opacity="0.16"/>
    <circle cx="813" cy="117" r="1.5" fill="#7d8590" opacity="0.09"/>
    <circle cx="1236" cy="375" r="1.1" fill="#7d8590" opacity="0.10"/>
    <circle cx="837" cy="32" r="1.5" fill="#7d8590" opacity="0.07"/>
    <circle cx="1176" cy="51" r="1.1" fill="#7d8590" opacity="0.12"/>
    <circle cx="548" cy="25" r="1.1" fill="#7d8590" opacity="0.10"/>
    <circle cx="231" cy="251" r="1.8" fill="#7d8590" opacity="0.12"/>
    <circle cx="782" cy="31" r="1.7" fill="#7d8590" opacity="0.14"/>
    <circle cx="576" cy="307" r="1.7" fill="#7d8590" opacity="0.12"/>
    <circle cx="207" cy="373" r="1.1" fill="#7d8590" opacity="0.16"/>
    <circle cx="1239" cy="104" r="1.2" fill="#7d8590" opacity="0.14"/>
    <circle cx="1146" cy="201" r="1.2" fill="#7d8590" opacity="0.13"/>
    <circle cx="1097" cy="366" r="1.7" fill="#7d8590" opacity="0.10"/>
    <circle cx="1202" cy="207" r="2.1" fill="#7d8590" opacity="0.12"/>
    <circle cx="279" cy="347" r="2.7" fill="#e3b341" opacity="0.90"/>
    <circle cx="932" cy="52" r="2.0" fill="#e3b341" opacity="0.79"/>
    <circle cx="158" cy="27" r="1.9" fill="#e3b341" opacity="0.77"/>
    <circle cx="1190" cy="293" r="2.2" fill="#e3b341" opacity="0.75"/>
    <circle cx="81" cy="131" r="2.1" fill="#e3b341" opacity="0.56"/>
    <circle cx="1099" cy="158" r="2.0" fill="#e3b341" opacity="0.83"/>
    <circle cx="168" cy="127" r="2.5" fill="#e3b341" opacity="0.78"/>
    <circle cx="844" cy="51" r="1.9" fill="#e3b341" opacity="0.89"/>
    <circle cx="810" cy="342" r="2.4" fill="#e3b341" opacity="0.69"/>
    <circle cx="1078" cy="173" r="2.4" fill="#e3b341" opacity="0.55"/>
    <circle cx="1079" cy="151" r="2.0" fill="#e3b341" opacity="0.88"/>
    <circle cx="1242" cy="331" r="2.7" fill="#e3b341" opacity="0.66"/>
    <circle cx="398" cy="344" r="1.9" fill="#e3b341" opacity="0.66"/>
    <circle cx="1098" cy="69" r="2.3" fill="#e3b341" opacity="0.83"/>
    <circle cx="92" cy="368" r="2.3" fill="#e3b341" opacity="0.58"/>
    <circle cx="156" cy="117" r="2.6" fill="#e3b341" opacity="0.60"/>
    <circle cx="225" cy="182" r="2.7" fill="#e3b341" opacity="0.77"/>
    <circle cx="283" cy="344" r="2.3" fill="#e3b341" opacity="0.70"/>
    <circle cx="595" cy="47" r="2.6" fill="#e3b341" opacity="0.69"/>
  </g>
  <g text-anchor="middle">
    <text x="640" y="150" font-family="ui-monospace,'SF Mono',Menlo,Consolas,monospace" font-size="15" letter-spacing="6" fill="#e3b341">CURATED FOR CLAUDE CODE</text>
    <text x="640" y="222" font-family="ui-sans-serif,-apple-system,'Segoe UI',Helvetica,Arial,sans-serif" font-size="78" font-weight="800" letter-spacing="-2" fill="#e6edf3">fable<tspan fill="#e3b341">-</tspan>pack</text>
    <text x="640" y="268" font-family="ui-sans-serif,-apple-system,'Segoe UI',Helvetica,Arial,sans-serif" font-size="21" fill="#9da7b3">Only what a frontier model gets wrong.</text>
    <text x="640" y="330" font-family="ui-monospace,'SF Mono',Menlo,Consolas,monospace" font-size="16" fill="#7d8590">80 skills<tspan fill="#3d4450">&#160;&#160;/&#160;&#160;</tspan>23 agents<tspan fill="#3d4450">&#160;&#160;/&#160;&#160;</tspan>5 plugins<tspan fill="#3d4450">&#160;&#160;/&#160;&#160;</tspan><tspan fill="#e3b341">&lt;10% keep rate</tspan></text>
  </g>
</svg>
